# xmcd CD database file
#
# Track frame offsets:
#	150
#	16107
#	28921
#	46572
#	61773
#	74543
#	96195
#	109426
#	119593
#	138397
#	158716
#	180387
#	213624
#	253924
#	295404
#
# Disc length: 4238 seconds
#
# Revision: 0
# Processed by: cddbd v1.5.1PL2 Copyright (c) Steve Scherf et al.
# Submitted via: CDex 1.51
#
DISCID=dd108c0f
DTITLE=august - 夜明け前より瑠璃色な 音楽集 Lunar Passport
DYEAR=2005
DGENRE=Game
TTITLE0=遥かなる奏楽
TTITLE1=月王宮
TTITLE2=掌に
TTITLE3=天海の鼓動 〜オルビス・ラクテウス〜
TTITLE4=手塚まき - WAX&WANE (short ver.)
TTITLE5=泉伶 - Lapis Lazuli
TTITLE6=L'Arlesiana
TTITLE7=紅に暮れて - warmly fulte mix -
TTITLE8=榊原ゆい - Eternal Destiny
TTITLE9=手塚まき - WAX&WANE
TTITLE10=泉伶 - Lapis Lazuli -Lunar eclipse version-
TTITLE11=「夜明け前より瑠璃色な」メドレー#1 -Venus medley tune-
TTITLE12=「夜明け前より瑠璃色な」メドレー#2 -Neptune medley tune-
TTITLE13=「夜明け前より瑠璃色な」メドレー#3 -Jupiter medley tune-
TTITLE14=泉伶 - Lapis Lazuli - Solar eclipse version -
EXTD=YEAR: 2005
EXTT0=
EXTT1=
EXTT2=
EXTT3=
EXTT4=
EXTT5=
EXTT6=
EXTT7=
EXTT8=
EXTT9=
EXTT10=
EXTT11=
EXTT12=
EXTT13=
EXTT14=
PLAYORDER=
